<mxfile host="app.diagrams.net" agent="Mozilla/5.0 (Windows NT 10.0; Win64; x64) AppleWebKit/537.36 (KHTML, like Gecko) Chrome/130.0.0.0 Safari/537.36" version="24.8.3">
  <diagram name="Page-1" id="TO6kB4z5MBMpsq3OqiZG">
    <mxGraphModel dx="1050" dy="557" grid="1" gridSize="10" guides="1" tooltips="1" connect="1" arrows="1" fold="1" page="1" pageScale="1" pageWidth="850" pageHeight="1100" math="0" shadow="0">
      <root>
        <mxCell id="0" />
        <mxCell id="1" parent="0" />
        <mxCell id="CODazpXLHY-GL3RTQAhL-28" value="" style="rounded=0;whiteSpace=wrap;html=1;" parent="1" vertex="1">
          <mxGeometry x="200" y="20" width="960" height="1010" as="geometry" />
        </mxCell>
        <mxCell id="ds1MS7w25QjL1ORueq1j-7" style="edgeStyle=orthogonalEdgeStyle;rounded=0;orthogonalLoop=1;jettySize=auto;html=1;curved=0;" parent="1" edge="1">
          <mxGeometry relative="1" as="geometry">
            <Array as="points">
              <mxPoint x="515.5" y="370" />
              <mxPoint x="515.5" y="370" />
            </Array>
            <mxPoint x="425" y="370" as="sourcePoint" />
            <mxPoint x="665" y="370" as="targetPoint" />
          </mxGeometry>
        </mxCell>
        <mxCell id="ds1MS7w25QjL1ORueq1j-1" value="Frontend" style="shape=umlLifeline;perimeter=lifelinePerimeter;whiteSpace=wrap;html=1;container=1;dropTarget=0;collapsible=0;recursiveResize=0;outlineConnect=0;portConstraint=eastwest;newEdgeStyle={&quot;curved&quot;:0,&quot;rounded&quot;:0};" parent="1" vertex="1">
          <mxGeometry x="370" y="110" width="100" height="890" as="geometry" />
        </mxCell>
        <mxCell id="ds1MS7w25QjL1ORueq1j-14" style="edgeStyle=orthogonalEdgeStyle;rounded=0;orthogonalLoop=1;jettySize=auto;html=1;curved=0;" parent="1" edge="1">
          <mxGeometry relative="1" as="geometry">
            <Array as="points">
              <mxPoint x="730.5" y="630" />
              <mxPoint x="730.5" y="630" />
            </Array>
            <mxPoint x="660" y="630" as="sourcePoint" />
            <mxPoint x="870" y="630" as="targetPoint" />
          </mxGeometry>
        </mxCell>
        <mxCell id="ds1MS7w25QjL1ORueq1j-2" value="Backend" style="shape=umlLifeline;perimeter=lifelinePerimeter;whiteSpace=wrap;html=1;container=1;dropTarget=0;collapsible=0;recursiveResize=0;outlineConnect=0;portConstraint=eastwest;newEdgeStyle={&quot;curved&quot;:0,&quot;rounded&quot;:0};" parent="1" vertex="1">
          <mxGeometry x="610" y="110" width="100" height="890" as="geometry" />
        </mxCell>
        <mxCell id="ds1MS7w25QjL1ORueq1j-3" value="Database" style="shape=umlLifeline;perimeter=lifelinePerimeter;whiteSpace=wrap;html=1;container=1;dropTarget=0;collapsible=0;recursiveResize=0;outlineConnect=0;portConstraint=eastwest;newEdgeStyle={&quot;curved&quot;:0,&quot;rounded&quot;:0};" parent="1" vertex="1">
          <mxGeometry x="820" y="110" width="100" height="770" as="geometry" />
        </mxCell>
        <mxCell id="ds1MS7w25QjL1ORueq1j-4" value="Admin" style="shape=umlActor;verticalLabelPosition=bottom;verticalAlign=top;html=1;" parent="1" vertex="1">
          <mxGeometry x="230" y="195" width="30" height="60" as="geometry" />
        </mxCell>
        <mxCell id="ds1MS7w25QjL1ORueq1j-6" style="rounded=0;orthogonalLoop=1;jettySize=auto;html=1;" parent="1" source="ds1MS7w25QjL1ORueq1j-8" target="ds1MS7w25QjL1ORueq1j-1" edge="1">
          <mxGeometry relative="1" as="geometry">
            <mxPoint x="320" y="225" as="sourcePoint" />
          </mxGeometry>
        </mxCell>
        <mxCell id="ds1MS7w25QjL1ORueq1j-11" style="edgeStyle=orthogonalEdgeStyle;rounded=0;orthogonalLoop=1;jettySize=auto;html=1;curved=0;" parent="1" edge="1">
          <mxGeometry relative="1" as="geometry">
            <mxPoint x="659.5" y="400" as="sourcePoint" />
            <mxPoint x="659.5" y="420" as="targetPoint" />
            <Array as="points">
              <mxPoint x="620" y="390" />
            </Array>
          </mxGeometry>
        </mxCell>
        <mxCell id="ds1MS7w25QjL1ORueq1j-13" value="authenticate token" style="html=1;whiteSpace=wrap;" parent="1" vertex="1">
          <mxGeometry x="500" y="385" width="110" height="40" as="geometry" />
        </mxCell>
        <mxCell id="ds1MS7w25QjL1ORueq1j-17" value="create user if email or nic not exist" style="html=1;whiteSpace=wrap;" parent="1" vertex="1">
          <mxGeometry x="710" y="590" width="110" height="30" as="geometry" />
        </mxCell>
        <mxCell id="ds1MS7w25QjL1ORueq1j-18" style="edgeStyle=orthogonalEdgeStyle;rounded=0;orthogonalLoop=1;jettySize=auto;html=1;curved=0;" parent="1" source="CODazpXLHY-GL3RTQAhL-9" edge="1">
          <mxGeometry relative="1" as="geometry">
            <mxPoint x="660" y="800" as="sourcePoint" />
            <mxPoint x="280" y="800" as="targetPoint" />
            <Array as="points">
              <mxPoint x="285" y="800" />
            </Array>
          </mxGeometry>
        </mxCell>
        <mxCell id="ds1MS7w25QjL1ORueq1j-20" value="response" style="html=1;whiteSpace=wrap;" parent="1" vertex="1">
          <mxGeometry x="710" y="650" width="110" height="30" as="geometry" />
        </mxCell>
        <mxCell id="ds1MS7w25QjL1ORueq1j-23" value="form validation" style="html=1;whiteSpace=wrap;" parent="1" vertex="1">
          <mxGeometry x="270" y="270" width="100" height="30" as="geometry" />
        </mxCell>
        <mxCell id="iVlFPtmmlEYchxga2JXQ-7" style="edgeStyle=orthogonalEdgeStyle;rounded=0;orthogonalLoop=1;jettySize=auto;html=1;curved=0;" parent="1" edge="1">
          <mxGeometry relative="1" as="geometry">
            <mxPoint x="419.5" y="280" as="sourcePoint" />
            <mxPoint x="419.5" y="300" as="targetPoint" />
            <Array as="points">
              <mxPoint x="380" y="270" />
            </Array>
          </mxGeometry>
        </mxCell>
        <mxCell id="iVlFPtmmlEYchxga2JXQ-9" style="edgeStyle=orthogonalEdgeStyle;rounded=0;orthogonalLoop=1;jettySize=auto;html=1;curved=0;" parent="1" edge="1">
          <mxGeometry relative="1" as="geometry">
            <mxPoint x="870" y="690" as="sourcePoint" />
            <mxPoint x="660" y="690" as="targetPoint" />
            <Array as="points">
              <mxPoint x="830.5" y="690" />
              <mxPoint x="830.5" y="690" />
            </Array>
          </mxGeometry>
        </mxCell>
        <mxCell id="B1_j8ZbPT3PzYgEqwr39-2" value="" style="image;aspect=fixed;html=1;points=[];align=center;fontSize=12;image=img/lib/azure2/general/Browser.svg;" parent="1" vertex="1">
          <mxGeometry x="387.5" y="50" width="65" height="52" as="geometry" />
        </mxCell>
        <mxCell id="B1_j8ZbPT3PzYgEqwr39-3" value="" style="image;aspect=fixed;perimeter=ellipsePerimeter;html=1;align=center;shadow=0;dashed=0;fontColor=#4277BB;labelBackgroundColor=default;fontSize=12;spacingTop=3;image=img/lib/ibm/infrastructure/mobile_backend.svg;" parent="1" vertex="1">
          <mxGeometry x="630" y="40" width="62" height="62" as="geometry" />
        </mxCell>
        <mxCell id="B1_j8ZbPT3PzYgEqwr39-4" value="" style="sketch=0;points=[[0,0,0],[0.25,0,0],[0.5,0,0],[0.75,0,0],[1,0,0],[0,1,0],[0.25,1,0],[0.5,1,0],[0.75,1,0],[1,1,0],[0,0.25,0],[0,0.5,0],[0,0.75,0],[1,0.25,0],[1,0.5,0],[1,0.75,0]];outlineConnect=0;fontColor=#232F3E;fillColor=#C925D1;strokeColor=#ffffff;dashed=0;verticalLabelPosition=bottom;verticalAlign=top;align=center;html=1;fontSize=12;fontStyle=0;aspect=fixed;shape=mxgraph.aws4.resourceIcon;resIcon=mxgraph.aws4.documentdb_with_mongodb_compatibility;" parent="1" vertex="1">
          <mxGeometry x="840.5" y="41.5" width="59" height="59" as="geometry" />
        </mxCell>
        <mxCell id="5JhnaXT9Y9rVh3wQFRMA-2" value="decrypt password with private key" style="html=1;whiteSpace=wrap;" parent="1" vertex="1">
          <mxGeometry x="500" y="490" width="110" height="30" as="geometry" />
        </mxCell>
        <mxCell id="CODazpXLHY-GL3RTQAhL-1" value="User" style="shape=umlActor;verticalLabelPosition=bottom;verticalAlign=top;html=1;" parent="1" vertex="1">
          <mxGeometry x="247.5" y="765" width="30" height="60" as="geometry" />
        </mxCell>
        <mxCell id="ds1MS7w25QjL1ORueq1j-8" value="user details" style="html=1;whiteSpace=wrap;" parent="1" vertex="1">
          <mxGeometry x="277.5" y="207.5" width="110" height="35" as="geometry" />
        </mxCell>
        <mxCell id="CODazpXLHY-GL3RTQAhL-3" value=". access token, user details" style="html=1;whiteSpace=wrap;" parent="1" vertex="1">
          <mxGeometry x="490" y="330" width="130" height="35" as="geometry" />
        </mxCell>
        <mxCell id="CODazpXLHY-GL3RTQAhL-4" style="edgeStyle=orthogonalEdgeStyle;rounded=0;orthogonalLoop=1;jettySize=auto;html=1;curved=0;" parent="1" edge="1">
          <mxGeometry relative="1" as="geometry">
            <mxPoint x="659.5" y="500" as="sourcePoint" />
            <mxPoint x="659.5" y="520" as="targetPoint" />
            <Array as="points">
              <mxPoint x="620" y="490" />
            </Array>
          </mxGeometry>
        </mxCell>
        <mxCell id="CODazpXLHY-GL3RTQAhL-5" value="authorize admin" style="html=1;whiteSpace=wrap;" parent="1" vertex="1">
          <mxGeometry x="500" y="440" width="110" height="30" as="geometry" />
        </mxCell>
        <mxCell id="CODazpXLHY-GL3RTQAhL-6" style="edgeStyle=orthogonalEdgeStyle;rounded=0;orthogonalLoop=1;jettySize=auto;html=1;curved=0;" parent="1" edge="1">
          <mxGeometry relative="1" as="geometry">
            <mxPoint x="659.5" y="450" as="sourcePoint" />
            <mxPoint x="659.5" y="470" as="targetPoint" />
            <Array as="points">
              <mxPoint x="620" y="440" />
            </Array>
          </mxGeometry>
        </mxCell>
        <mxCell id="CODazpXLHY-GL3RTQAhL-7" style="edgeStyle=orthogonalEdgeStyle;rounded=0;orthogonalLoop=1;jettySize=auto;html=1;curved=0;" parent="1" edge="1">
          <mxGeometry relative="1" as="geometry">
            <mxPoint x="659.5" y="545" as="sourcePoint" />
            <mxPoint x="659.5" y="565" as="targetPoint" />
            <Array as="points">
              <mxPoint x="620" y="535" />
            </Array>
          </mxGeometry>
        </mxCell>
        <mxCell id="CODazpXLHY-GL3RTQAhL-8" value="encrypt password with SHA256" style="html=1;whiteSpace=wrap;" parent="1" vertex="1">
          <mxGeometry x="500" y="540" width="110" height="30" as="geometry" />
        </mxCell>
        <mxCell id="CODazpXLHY-GL3RTQAhL-9" value="AWS SES" style="shape=umlLifeline;perimeter=lifelinePerimeter;whiteSpace=wrap;html=1;container=1;dropTarget=0;collapsible=0;recursiveResize=0;outlineConnect=0;portConstraint=eastwest;newEdgeStyle={&quot;curved&quot;:0,&quot;rounded&quot;:0};" parent="1" vertex="1">
          <mxGeometry x="1020" y="110" width="100" height="890" as="geometry" />
        </mxCell>
        <mxCell id="CODazpXLHY-GL3RTQAhL-10" value="" style="outlineConnect=0;dashed=0;verticalLabelPosition=bottom;verticalAlign=top;align=center;html=1;shape=mxgraph.aws3.ses;fillColor=#D9A741;gradientColor=none;" parent="1" vertex="1">
          <mxGeometry x="1030" y="33" width="69.5" height="75.5" as="geometry" />
        </mxCell>
        <mxCell id="CODazpXLHY-GL3RTQAhL-11" style="edgeStyle=orthogonalEdgeStyle;rounded=0;orthogonalLoop=1;jettySize=auto;html=1;curved=0;" parent="1" target="CODazpXLHY-GL3RTQAhL-9" edge="1">
          <mxGeometry relative="1" as="geometry">
            <Array as="points">
              <mxPoint x="660" y="751" />
            </Array>
            <mxPoint x="660" y="750" as="sourcePoint" />
            <mxPoint x="870" y="750" as="targetPoint" />
          </mxGeometry>
        </mxCell>
        <mxCell id="CODazpXLHY-GL3RTQAhL-12" value="Email" style="html=1;whiteSpace=wrap;" parent="1" vertex="1">
          <mxGeometry x="710" y="710" width="110" height="30" as="geometry" />
        </mxCell>
        <mxCell id="CODazpXLHY-GL3RTQAhL-15" value="sent verification emal" style="html=1;whiteSpace=wrap;" parent="1" vertex="1">
          <mxGeometry x="600" y="780" width="110" height="30" as="geometry" />
        </mxCell>
        <mxCell id="CODazpXLHY-GL3RTQAhL-17" style="edgeStyle=orthogonalEdgeStyle;rounded=0;orthogonalLoop=1;jettySize=auto;html=1;curved=0;" parent="1" edge="1">
          <mxGeometry relative="1" as="geometry">
            <mxPoint x="419.5" y="330" as="sourcePoint" />
            <mxPoint x="419.5" y="350" as="targetPoint" />
            <Array as="points">
              <mxPoint x="380" y="320" />
            </Array>
          </mxGeometry>
        </mxCell>
        <mxCell id="CODazpXLHY-GL3RTQAhL-18" value="encrypt password" style="html=1;whiteSpace=wrap;" parent="1" vertex="1">
          <mxGeometry x="270" y="320" width="100" height="30" as="geometry" />
        </mxCell>
        <mxCell id="CODazpXLHY-GL3RTQAhL-19" value="" style="endArrow=classic;html=1;rounded=0;" parent="1" target="ds1MS7w25QjL1ORueq1j-2" edge="1">
          <mxGeometry width="50" height="50" relative="1" as="geometry">
            <mxPoint x="1070" y="850" as="sourcePoint" />
            <mxPoint x="590" y="850" as="targetPoint" />
          </mxGeometry>
        </mxCell>
        <mxCell id="CODazpXLHY-GL3RTQAhL-20" value="status response" style="html=1;whiteSpace=wrap;" parent="1" vertex="1">
          <mxGeometry x="770" y="830" width="110" height="30" as="geometry" />
        </mxCell>
        <mxCell id="CODazpXLHY-GL3RTQAhL-22" value="" style="endArrow=classic;html=1;rounded=0;" parent="1" target="ds1MS7w25QjL1ORueq1j-1" edge="1">
          <mxGeometry width="50" height="50" relative="1" as="geometry">
            <mxPoint x="660" y="910" as="sourcePoint" />
            <mxPoint x="600" y="730" as="targetPoint" />
          </mxGeometry>
        </mxCell>
        <mxCell id="CODazpXLHY-GL3RTQAhL-23" value="response" style="html=1;whiteSpace=wrap;" parent="1" vertex="1">
          <mxGeometry x="500" y="890" width="110" height="30" as="geometry" />
        </mxCell>
        <mxCell id="CODazpXLHY-GL3RTQAhL-26" style="edgeStyle=orthogonalEdgeStyle;rounded=0;orthogonalLoop=1;jettySize=auto;html=1;curved=0;" parent="1" edge="1">
          <mxGeometry relative="1" as="geometry">
            <mxPoint x="419.5" y="960" as="sourcePoint" />
            <mxPoint x="419.5" y="980" as="targetPoint" />
            <Array as="points">
              <mxPoint x="380" y="950" />
            </Array>
          </mxGeometry>
        </mxCell>
        <mxCell id="CODazpXLHY-GL3RTQAhL-27" value="show alert" style="html=1;whiteSpace=wrap;" parent="1" vertex="1">
          <mxGeometry x="260" y="950" width="110" height="30" as="geometry" />
        </mxCell>
      </root>
    </mxGraphModel>
  </diagram>
</mxfile>
